<?xml version="1.0" encoding="utf-8"?>
<!-- Generator: Adobe Illustrator 16.0.4, SVG Export Plug-In . SVG Version: 6.00 Build 0)  -->
<!DOCTYPE svg PUBLIC "-//W3C//DTD SVG 1.1//EN" "http://www.w3.org/Graphics/SVG/1.1/DTD/svg11.dtd">
<svg version="1.1" id="Layer_2" xmlns="http://www.w3.org/2000/svg" xmlns:xlink="http://www.w3.org/1999/xlink" x="0px" y="0px"
	 width="173.48px" height="44px" viewBox="-0.03 0 5252.629 1332.311" enable-background="new -0.03 0 5252.629 1332.311"
	 xml:space="preserve">
<g id="Layer_3">
	<path fill="#4E9D2D" d="M551.2,1298.5C-1038.8,555.7,1175-519.8,2599.4,292.1C1184.599-307.6-599.9,613.6,551.2,1298.5z"/>
</g>
<g id="open__x28_shadow_x29_">
	<g>
		<path stroke="#000000" stroke-width="3" d="M669.5,1078.7c-40-0.7-75.4-9-106.2-24.9c-31.2-15.6-56.399-35.6-75.7-60.2
			c-39.6-51.899-59.5-105.8-59.5-161.8C429.5,746.4,461.4,674,524,614.5c60.2-60.2,135.3-91.1,225.6-92.8
			c46.101,0,85.301,8,117.4,23.899c31.4,16.301,56.7,36.7,75.9,61.2c19.5,24.9,33.8,51.5,43.1,79.9c7.5,29,11.3,57,11.3,84
			c0,76.399-27.2,145.7-81.5,208C860.9,1042.9,778.9,1076.3,669.5,1078.7z M687.2,983.6c3.6,0.7,11.3-0.699,23.1-4.199
			c11.101-2.801,23-10.9,35.5-24.5c6.4-8,12.9-17.5,19.4-28.7c6.8-10.8,12.399-24.3,16.7-40.601c10.399-31.3,17-76.1,19.899-134.399
			c2.8-37.9-0.1-69.5-8.6-94.8c-9-25.7-24-38.9-45.2-39.601c-20.8,0.7-38.9,8.2-54.4,22.4c-15.399,14.2-28.5,33-39.3,56.3
			c-20.8,50-31.2,98.5-31.2,145.3c0,42,4.801,76.101,14.5,102.101C647.4,970,663.9,983.6,687.2,983.6z"/>
		<path stroke="#000000" stroke-width="3.0211" d="M1310.599,589.8c24.2-20.399,50.7-37.8,79.601-52.2
			c28.2-13.399,57.399-20.6,87.7-21.6c98,1.1,147.3,72.4,148,214.2c-2,110.399-31.9,195.7-89.801,255.899
			c-55.8,59.9-113,90.2-171.399,90.9c-51-0.7-95.301-19.2-132.9-55.5l-57.9,309.3H981.4L1132.2,529.4h189.1L1310.599,589.8z
			 M1376.8,632.5c-11.8,0-23.8,4.9-35.899,14.6c-12.5,10.101-25.301,27-38.4,50.7c-26.3,45.601-43.6,121.5-52.1,227.8
			c14.5,31.301,38,47,70.6,47c12.1,0,25-6.1,38.8-18.3c12.4-12.2,23.8-28.899,34.3-50.1C1416.9,860.7,1428.7,805.6,1429.4,739.1
			C1430.099,668.1,1412.599,632.5,1376.8,632.5z"/>
		<path stroke="#000000" stroke-width="3" d="M2157.3,993.8c-36.1,21.7-78,41.101-125.5,58c-47.2,17.3-96.899,26.2-149.1,26.9
			c-34-0.7-62.101-9-84.4-24.9c-23.3-13.8-42.1-32.2-56.399-55c-7-12.1-12.801-23.899-17.5-35.3c-4.7-11.8-8.801-23.3-12.5-34.7
			c-2.7-11.399-4.7-22.5-6-33.2c-1.301-9.699-2-18.8-2-27.5c2.699-62.199,15-115.699,37.1-160.3c10.3-22.8,22.7-43,37.1-60.7
			c13.7-17.6,28.4-33.199,44.101-46.699c32.1-27.7,66.8-47.9,104.2-60.7c36.399-12.101,71.3-18.2,104.699-18.2
			c52.101,0,95.5,10.7,130.301,32.2c35.1,21.8,52.899,58,53.6,108.399c-0.7,29.101-9.9,54.101-27.6,75.2
			c-18.101,22.8-42.5,41.7-73.301,56.601c-63.6,31.1-134.899,46-213.8,44.6c-0.7,5.5-0.7,14.4,0,26.5c0,12.8,2.5,26,7.5,39.5
			c4.7,12.8,13.2,23.7,25.6,32.7c12.4,10.7,30.101,16.1,53.2,16.1c24.1,0,46.7-4.7,67.8-14c20.7-8.3,42-18.5,63.8-30.7L2157.3,993.8
			z M2016.8,613.2c-29.5,2.8-52.899,17-70.3,42.7c-17.1,25.399-29.7,56.6-37.7,93.8c102.8,2.8,155.9-25,159.3-83.4
			c1.4-16.3-2.6-29.5-12.1-39.6C2046.3,617.7,2033.3,613.2,2016.8,613.2z"/>
		<path stroke="#000000" stroke-width="3.0236" d="M2497.7,626l2,2.1c29.6-36.699,62.3-64.6,97.899-83.699
			c35.301-18,68.801-27,100.5-27c76.4,0,114.601,38.3,114.601,114.899c0.7,24.7-2,54.3-8.101,88.8l-62.1,344.301h-186.301
			L2616.3,729.3c1.3-9.399,2-18.3,2-26.7c-2.7-22.3-7.899-36.6-15.601-42.899c-8.1-5.9-15.699-8.9-22.699-8.9
			c-17.2,0-32,5.4-44.4,16.2c-13.1,10.8-24.399,25.1-33.8,42.9c-18.2,38-30.601,76.8-37.3,116.6l-42.4,238.9h-186.3l96.399-534.7
			H2517L2497.7,626z"/>
	</g>
</g>
<g id="open__x28_outline_x29_">
	<g>
		<path fill="#FFFFFF" stroke="#000000" stroke-width="23" d="M624.2,1027.2c-40-0.7-75.4-9-106.2-24.9
			c-31.2-15.6-56.4-35.6-75.7-60.2c-39.6-51.899-59.5-105.8-59.5-161.8c1.4-85.399,33.3-157.8,95.9-217.3
			c60.2-60.2,135.3-91.1,225.6-92.8c46.101,0,85.3,8,117.4,23.899c31.399,16.301,56.7,36.7,75.899,61.2
			c19.5,24.9,33.801,51.5,43.101,79.9c7.5,29,11.3,57,11.3,84c0,76.399-27.2,145.7-81.5,208
			C815.7,991.4,733.599,1024.7,624.2,1027.2z M642,932c3.6,0.7,11.3-0.7,23.1-4.2c11.101-2.8,23-10.899,35.5-24.5
			c6.4-8,12.9-17.5,19.4-28.7c6.8-10.8,12.4-24.3,16.7-40.6c10.399-31.3,17-76.1,19.899-134.4c2.801-37.899-0.1-69.5-8.6-94.8
			c-9-25.7-24-38.899-45.2-39.6C682,565.9,663.9,573.4,648.4,587.6c-15.4,14.2-28.5,33-39.301,56.301
			c-20.8,50-31.199,98.5-31.199,145.399c0,42,4.8,76.101,14.5,102.101C602.099,918.5,618.599,932,642,932z"/>
		<path fill="#FFFFFF" stroke="#000000" stroke-width="23" d="M1267.599,543.4c24-20.2,50.4-37.5,79.101-51.801
			c28-13.3,57-20.399,87.1-21.5c97.3,1.101,146.3,71.9,147,212.7c-2,109.601-31.7,194.3-89.1,254.101
			c-55.4,59.5-112.2,89.5-170.2,90.3c-50.7-0.7-94.7-19.101-132-55.101L1132,1279.2H940.7l149.7-795.8h187.699L1267.599,543.4z
			 M1333.3,585.9c-11.7,0-23.6,4.8-35.6,14.5c-12.4,10-25.101,26.8-38.2,50.3c-26.1,45.3-43.3,120.7-51.7,226.2
			c14.4,31.1,37.7,46.699,70.101,46.699c12,0,24.899-6.1,38.5-18.199c12.3-12.101,23.699-28.7,34-49.801
			c22.699-43.199,34.399-97.899,35-163.899C1386.2,621.2,1368.8,585.9,1333.3,585.9z"/>
		<path fill="#FFFFFF" stroke="#000000" stroke-width="23" d="M2112.099,942.3c-36.1,21.7-78,41.101-125.5,58
			c-47.199,17.3-96.899,26.2-149.1,26.9c-34-0.7-62.1-9-84.4-24.9c-23.3-13.8-42.1-32.2-56.399-55c-7-12.1-12.8-23.899-17.5-35.3
			c-4.7-11.8-8.8-23.3-12.5-34.7c-2.7-11.399-4.7-22.5-6-33.2c-1.3-9.699-2-18.8-2-27.5c2.7-62.199,15-115.699,37.1-160.3
			c10.3-22.8,22.7-43,37.101-60.7C1746.599,578,1761.3,562.4,1777,548.9c32.1-27.7,66.8-47.9,104.2-60.7
			c36.399-12.101,71.3-18.2,104.7-18.2c52.1,0,95.5,10.7,130.3,32.2c35.1,21.8,52.899,57.899,53.6,108.399
			c-0.7,29.101-9.899,54.101-27.6,75.2c-18.101,22.8-42.5,41.7-73.3,56.601c-63.601,31.1-134.9,46-213.801,44.6
			c-0.699,5.5-0.699,14.4,0,26.5c0,12.8,2.5,26,7.5,39.5c4.7,12.8,13.2,23.7,25.601,32.7c12.399,10.7,30.1,16.1,53.199,16.1
			c24.101,0,46.7-4.7,67.801-14c20.699-8.3,41.999-18.5,63.8-30.6L2112.099,942.3z M1971.599,561.6c-29.5,2.801-52.899,17-70.3,42.7
			c-17.1,25.4-29.7,56.601-37.7,93.8c102.801,2.801,155.9-25,159.301-83.3c1.399-16.3-2.601-29.5-12.101-39.6
			C2001.099,566.2,1988,561.6,1971.599,561.6z"/>
		<path fill="#FFFFFF" stroke="#000000" stroke-width="23" d="M2454.9,577.9l2,2.1c29.399-36.4,61.8-64.1,97.199-83
			c35.101-17.9,68.301-26.8,99.7-26.8c75.8,0,113.7,38,113.7,114c0.699,24.5-2,53.899-8,88.1l-61.601,341.601H2513l59.6-333.5
			c1.301-9.301,2-18.101,2-26.5c-2.699-22.101-7.8-36.301-15.5-42.5c-8-5.9-15.5-8.801-22.5-8.801c-17,0-31.699,5.4-44.1,16.101
			c-13,10.7-24.2,24.899-33.6,42.5c-18,37.7-30.4,76.2-37.101,115.7l-42.101,237H2195l95.7-530.5H2474L2454.9,577.9z"/>
	</g>
</g>
<g id="NMS">
	<g>
		<path d="M3567.7,1086.3h-145.2c-56.3-70.1-114.9-144.399-175.8-222.8c-61.3-78.4-110.4-149.2-147.2-212.5h-2v435.3h-169.8V343.5
			H3085c55.6,68.5,114.2,143.1,175.8,224c61.3,80.6,106.3,147.8,135.101,201.8h2V343.5h169.8V1086.3L3567.7,1086.3z"/>
		<path d="M4528.9,1086.3h-224V566.5h-2.101c-55.3,188.6-111.899,361.9-169.8,519.8h-135.901
			C3938.5,928.4,3880.9,755.1,3824.3,566.5h-2v519.8h-169.8V343.5H3948c49.4,136.6,98.5,289.1,147.2,457.4h2
			c47.101-168.4,94.601-320.9,142.7-457.4h288.9v742.8H4528.9z"/>
		<path d="M5021.4,496.4C4992,478,4956.699,468.8,4915.6,468.8c-48.399,1.4-72.6,16.601-72.6,45.7c0,9.3,4.1,19,12.3,29.1
			c7.101,10.4,17.3,20.9,30.5,31.7c26.399,21.101,58.601,48.4,96.399,82c45.5,43.3,76.4,81.5,92.801,114.7
			c15.699,33.9,23.299,70.1,22.6,108.5c0,16.3-3.5,36.3-10.5,60.2c-7.4,24.899-21.4,49.5-42.1,73.7
			c-19.101,23.899-46,43.6-80.701,59.199c-35.799,16.601-80.799,25.301-135,26c-42.5,0-83.1-5.699-121.899-17
			c-39.8-10.699-74.399-27.5-103.8-50.6l65.7-122.9c15.7,12.2,33.8,23.4,54.2,33.801c20.7,12.199,43.8,18.199,69.2,18.199
			c22.399,0,42.8-6.399,61.2-19.199c18.7-11.101,28.4-30.5,29.1-58.2c0-14.9-3.799-29.4-11.5-43.601
			c-7.399-12.8-17.199-25.3-29.6-37.399c-26.1-23.9-54.5-48.3-85.2-73.2c-39.8-32.6-71-63-93.601-91.4
			c-23-27.699-34.399-63.5-34.399-107.5c0.7-60.3,26.601-108.6,77.7-145c48.1-36,107.7-54.4,179-55.1
			c47.4,0.699,88.3,6.699,122.7,18.1c32.7,11.4,55.7,21.9,69,31.5L5021.4,496.4z"/>
	</g>
</g>
<g>
	<g>
		<path d="M5252.6,439.4c0,40.199-31.5,71.699-72.6,71.699c-40.6,0-73-31.5-73-71.699c0-39.301,32.4-70.801,73-70.801
			C5221,368.6,5252.6,400.1,5252.6,439.4z M5125.1,439.4c0,31.5,23.301,56.6,55.301,56.6c31.1,0,54-25.1,54-56.2
			c0-31.5-22.9-57-54.4-57C5148.5,382.9,5125.1,408.3,5125.1,439.4z M5168.8,476.6H5152.4v-70.8c6.5-1.3,15.6-2.2,27.199-2.2
			c13.4,0,19.4,2.2,24.601,5.2c3.899,3,6.899,8.601,6.899,15.601c0,7.8-6,13.8-14.699,16.399v0.9c6.899,2.6,10.799,7.8,13,17.3
			c2.199,10.8,3.5,15.1,5.199,17.7H5196.9c-2.201-2.601-3.5-9.101-5.601-17.3c-1.3-7.801-5.601-11.2-14.7-11.2h-7.8V476.6z
			 M5169.2,436.4h7.8c9.1,0,16.4-3,16.4-10.4c0-6.5-4.801-10.8-15.101-10.8c-4.3,0-7.3,0.399-9.101,0.899L5169.2,436.4L5169.2,436.4
			z"/>
	</g>
</g>
<g>
	<g>
		<path d="M2922.599,247.5V3.1h77.4c23.3,0,41.9,6.3,55.7,18.9c13.899,12.6,20.8,29.5,20.8,50.7c0,14.2-3.6,26.8-10.7,37.7
			c-7.1,10.899-16.8,18.899-29.2,23.8c-12.3,5-30,7.399-53.1,7.399h-25.9v105.9H2922.599z M2993.9,34.2h-36.2v76.3h38.3
			c14.2,0,25.2-3.3,32.8-10c7.7-6.7,11.5-16.3,11.5-28.7C3040.4,46.8,3024.9,34.2,2993.9,34.2z"/>
	</g>
	<g>
		<path d="M3226.7,0c37.7,0,69.1,11.9,94.2,35.8c25.1,23.9,37.6,53.8,37.6,89.8s-12.7,65.801-38,89.4s-57.2,35.4-95.8,35.4
			c-36.8,0-67.4-11.801-91.9-35.4s-36.7-53.1-36.7-88.7c0-36.5,12.301-66.6,37-90.5C3157.8,11.9,3189,0,3226.7,0z M3228.099,33.2
			c-27.899,0-50.899,8.7-68.899,26.2s-27,39.8-27,66.899c0,26.3,9,48.2,27.101,65.7c18,17.5,40.6,26.2,67.699,26.2
			c27.2,0,49.9-8.9,68.2-26.7c18.2-17.8,27.3-40,27.3-66.6c0-25.9-9.1-47.601-27.3-65.2C3277,42,3254.599,33.2,3228.099,33.2z"/>
	</g>
	<g>
		<path d="M3698,3.5h34.8l-98.7,245.1h-7.699l-79.801-198.5L3466,248.6h-7.5L3360.3,3.5h35.2l67.3,168.2l67.7-168.2h33l68,168.2
			L3698,3.5z"/>
		<path d="M3760,3.5h138.4v31.1H3795V109h99.9v31.3H3795v75.8h106.7V247.2H3760V3.5z"/>
		<path d="M3939.9,247.5V3.5h61.1c24.7,0,44.3,6.1,58.8,18.3c14.5,12.2,21.7,28.8,21.7,49.601c0,14.199-3.6,26.5-10.7,36.899
			c-7.1,10.4-17.3,18.101-30.6,23.2c7.8,5.1,15.399,12.1,22.899,21s17.9,24.3,31.4,46.3c8.5,13.9,15.3,24.3,20.401,31.3l12.899,17.5
			h-41.601l-10.6-16.1c-0.3-0.6-1-1.6-2.1-3l-6.801-9.6l-10.8-17.801l-11.7-19.1c-7.199-10-13.8-18-19.8-23.9
			c-6-5.899-11.399-10.199-16.3-12.8c-4.801-2.6-13-3.899-24.4-3.899h-9.1V247.6H3939.9V247.5z M3985.3,33.2h-10.5v77h13.3
			c17.7,0,29.801-1.5,36.4-4.5s11.7-7.601,15.4-13.7c3.699-6.1,5.5-13.1,5.5-20.9c0-7.699-2-14.6-6.101-20.899
			c-4.101-6.2-9.8-10.601-17.2-13.2C4014.7,34.5,4002.4,33.2,3985.3,33.2z"/>
		<path d="M4155,3.5h138.4v31.1H4190V109h99.9v31.3H4190v75.8h106.7V247.2H4155V3.5z"/>
		<path d="M4334.2,247.2V3.5h82.3c33.2,0,59.5,5,78.8,14.9c19.3,10,34.7,24.6,46.101,43.9c11.399,19.3,17.1,40.4,17.1,63.2
			c0,16.3-3.1,31.9-9.4,46.8c-6.299,14.9-15.299,28-26.899,39.3c-11.899,11.601-25.7,20.4-41.399,26.4
			c-9.201,3.6-17.601,6-25.301,7.2c-7.699,1.2-22.399,1.8-44,1.8h-77.3V247.2z M4412.8,34.6h-43.7v181.5h44.7
			c17.5,0,31-1.199,40.7-3.6s17.7-5.4,24.2-9.1c6.5-3.7,12.399-8.2,17.7-13.5c17.2-17.5,25.9-39.5,25.9-66.2
			c0-26.2-8.9-47.601-26.601-64.101c-6.5-6.199-14-11.199-22.399-15.199c-8.4-4-16.5-6.601-24-7.9
			C4441.7,35.2,4429.6,34.6,4412.8,34.6z"/>
		<path d="M4784.2,247.5H4701.6V3.5h63.9c20.1,0,35.9,2.7,47.2,8.1S4832.6,24.5,4838.6,34c5.9,9.5,8.9,20.5,8.9,32.9
			c0,24-12.4,41.199-37.2,51.5c17.8,3.399,32,10.699,42.5,22c10.5,11.3,15.8,24.8,15.8,40.5c0,12.5-3.2,23.6-9.6,33.399
			c-6.4,9.8-15.801,17.8-28.201,23.9C4818.4,244.5,4802.8,247.5,4784.2,247.5z M4766.6,34.6h-30V108h23.201
			c18.6,0,31.899-3.6,39.699-10.7c7.9-7.1,11.801-16.3,11.801-27.6C4811.3,46.3,4796.4,34.6,4766.6,34.6z M4769.2,139.1h-32.7v77.4
			h34.4c19.1,0,32.1-1.5,38.899-4.5s12.3-7.6,16.399-13.9c4.101-6.3,6.201-13,6.201-20.3c0-7.5-2.201-14.3-6.601-20.399
			c-4.399-6.2-10.601-10.801-18.601-13.801C4799.2,140.6,4786.5,139.1,4769.2,139.1z"/>
		<path d="M5049.8,3.5h42.399l-90.1,115v129.1h-35.8V118.4l-90.101-115h42.201l65.299,84.1L5049.8,3.5z"/>
	</g>
</g>
</svg>
